<svg width="333" height="24" viewBox="0 0 333 24" fill="none" xmlns="http://www.w3.org/2000/svg">
<g filter="url(#filter0_b_1256_8122)">
<rect width="159" height="24" rx="5" fill="black" fill-opacity="0.6"/>
<path d="M15.0391 7.65625L12.6406 9.54688V7.85156L15.1719 5.79688H16.5469V17H15.0391V7.65625ZM23.2897 16.0391C22.4772 15.2943 22.0709 14.3073 22.0709 13.0781C22.0709 11.8542 22.4772 10.8672 23.2897 10.1172C24.097 9.3724 25.1256 9 26.3756 9C27.6152 9 28.6439 9.3724 29.4616 10.1172C30.2689 10.8672 30.6725 11.8542 30.6725 13.0781C30.6725 14.3073 30.2689 15.2943 29.4616 16.0391C28.6439 16.7839 27.6152 17.1562 26.3756 17.1562C25.1256 17.1562 24.097 16.7839 23.2897 16.0391ZM28.4772 15.0938C29.0032 14.5677 29.2662 13.8958 29.2662 13.0781C29.2662 12.2604 29.0032 11.5885 28.4772 11.0625C27.9511 10.5417 27.2506 10.2812 26.3756 10.2812C25.4954 10.2812 24.7949 10.5417 24.2741 11.0625C23.7428 11.5833 23.4772 12.2552 23.4772 13.0781C23.4772 13.901 23.7428 14.5729 24.2741 15.0938C24.8001 15.6198 25.5006 15.8828 26.3756 15.8828C27.2402 15.8828 27.9407 15.6198 28.4772 15.0938ZM33.6572 9.21094V11.4453C33.6572 12.0599 33.8239 12.5208 34.1572 12.8281C34.4957 13.1354 35.0452 13.2891 35.8056 13.2891H37.9306V9.21094H39.3056V17H37.9306V14.5391H35.8056C34.6546 14.5391 33.7796 14.2786 33.1806 13.7578C32.5817 13.2318 32.2822 12.4609 32.2822 11.4453V9.21094H33.6572ZM49.6731 13.0781L49.6262 13.7344H42.5403C42.5403 14.1823 42.8059 14.651 43.3372 15.1406C43.8632 15.6354 44.569 15.8828 45.4544 15.8828C46.1054 15.8828 46.6393 15.7604 47.0559 15.5156C47.3997 15.3073 47.6393 15.1198 47.7747 14.9531L47.8372 14.8438H49.4544C49.4231 14.9219 49.3893 15.0026 49.3528 15.0859C49.2851 15.2057 49.1575 15.3906 48.97 15.6406C48.7669 15.9062 48.5299 16.1432 48.2591 16.3516C47.9986 16.5547 47.6158 16.7396 47.1106 16.9062C46.6315 17.0729 46.0794 17.1562 45.4544 17.1562C44.1575 17.1562 43.1054 16.7865 42.2981 16.0469C41.4804 15.3073 41.0716 14.3177 41.0716 13.0781C41.0716 11.849 41.4778 10.862 42.2903 10.1172C43.0976 9.3724 44.1262 9 45.3762 9C46.6158 9 47.6445 9.3724 48.4622 10.1172C49.2695 10.862 49.6731 11.849 49.6731 13.0781ZM47.4544 11.0234C46.9335 10.5286 46.2408 10.2812 45.3762 10.2812C44.5012 10.2812 43.8085 10.5286 43.2981 11.0234C42.7825 11.5182 42.5247 12.0052 42.5247 12.4844H48.22C48.22 12.0052 47.9648 11.5182 47.4544 11.0234ZM52.8219 20.2031H51.4469V9.15625H52.8219V10.3281H52.8844C52.9781 10.1823 53.1266 10.026 53.3297 9.85938C53.512 9.71354 53.7073 9.58073 53.9156 9.46094C54.1396 9.33594 54.4313 9.22917 54.7906 9.14062C55.1552 9.04688 55.5224 9 55.8922 9C57.0745 9 58.0641 9.375 58.8609 10.125C59.6526 10.8854 60.0484 11.8698 60.0484 13.0781C60.0484 14.2969 59.6526 15.2812 58.8609 16.0312C58.0641 16.7812 57.0745 17.1562 55.8922 17.1562C55.0797 17.1562 54.4182 17 53.9078 16.6875C53.4599 16.4115 53.1552 16.1745 52.9938 15.9766L52.8844 15.8281H52.8219V20.2031ZM57.8531 15.0859C58.3792 14.5599 58.6422 13.8906 58.6422 13.0781C58.6422 12.276 58.3792 11.6068 57.8531 11.0703C57.3167 10.5443 56.6083 10.2812 55.7281 10.2812C54.8427 10.2812 54.137 10.5443 53.6109 11.0703C53.0849 11.6068 52.8219 12.276 52.8219 13.0781C52.8219 13.9115 53.0927 14.5859 53.6344 15.1016C54.1708 15.6224 54.8688 15.8828 55.7281 15.8828C56.6135 15.8828 57.3219 15.6172 57.8531 15.0859ZM70.0956 13.0781L70.0488 13.7344H62.9628C62.9628 14.1823 63.2284 14.651 63.7597 15.1406C64.2857 15.6354 64.9915 15.8828 65.8769 15.8828C66.5279 15.8828 67.0618 15.7604 67.4784 15.5156C67.8222 15.3073 68.0618 15.1198 68.1972 14.9531L68.2597 14.8438H69.8769C69.8456 14.9219 69.8118 15.0026 69.7753 15.0859C69.7076 15.2057 69.58 15.3906 69.3925 15.6406C69.1894 15.9062 68.9524 16.1432 68.6816 16.3516C68.4211 16.5547 68.0383 16.7396 67.5331 16.9062C67.054 17.0729 66.5019 17.1562 65.8769 17.1562C64.58 17.1562 63.5279 16.7865 62.7206 16.0469C61.9029 15.3073 61.4941 14.3177 61.4941 13.0781C61.4941 11.849 61.9003 10.862 62.7128 10.1172C63.5201 9.3724 64.5488 9 65.7988 9C67.0383 9 68.067 9.3724 68.8847 10.1172C69.692 10.862 70.0956 11.849 70.0956 13.0781ZM67.8769 11.0234C67.356 10.5286 66.6633 10.2812 65.7988 10.2812C64.9238 10.2812 64.231 10.5286 63.7206 11.0234C63.205 11.5182 62.9472 12.0052 62.9472 12.4844H68.6425C68.6425 12.0052 68.3873 11.5182 67.8769 11.0234ZM72.1194 19H70.7444V15.75H71.3225C71.6662 15.75 71.9136 15.5781 72.0647 15.2344C72.2157 14.901 72.3407 14.3151 72.4397 13.4766L72.9866 9.15625H78.9241V15.75H80.1037V19H78.7287V17H72.1194V19ZM77.5491 10.4062H74.1897L73.7209 14.1172C73.6741 14.513 73.5985 14.8516 73.4944 15.1328C73.3902 15.4141 73.2912 15.5833 73.1975 15.6406L73.0803 15.7188V15.75H77.5491V10.4062ZM82.7681 11.75H84.5572C86.9061 11.75 88.0806 12.625 88.0806 14.375C88.0806 16.125 86.9061 17 84.5572 17H81.3931V9.15625H82.7681V11.75ZM84.5572 15.7969C85.3489 15.7969 85.8983 15.6823 86.2056 15.4531C86.5129 15.224 86.6666 14.8646 86.6666 14.375C86.6666 13.8854 86.5129 13.526 86.2056 13.2969C85.8983 13.0677 85.3489 12.9531 84.5572 12.9531H82.7681V15.7969H84.5572Z" fill="white"/>
<path d="M104.922 17H95.8828V15.8125C95.8828 15.3073 96.0156 14.8411 96.2812 14.4141C96.5521 13.9818 96.9141 13.6172 97.3672 13.3203C98.0078 12.9036 99.0286 12.3932 100.43 11.7891C100.862 11.6068 101.237 11.4297 101.555 11.2578C101.872 11.0859 102.177 10.888 102.469 10.6641C102.76 10.4349 102.982 10.1849 103.133 9.91406C103.289 9.63802 103.367 9.34375 103.367 9.03125C103.367 8.36458 103.125 7.86198 102.641 7.52344C102.156 7.1849 101.456 7.01562 100.539 7.01562C98.6536 7.01562 97.7083 7.76823 97.7031 9.27344V9.59375H96.2031V9.27344C96.2031 8.13281 96.5938 7.24219 97.375 6.60156C98.1458 5.96094 99.2005 5.64062 100.539 5.64062C101.857 5.64062 102.911 5.94271 103.703 6.54688C104.484 7.15625 104.875 7.98438 104.875 9.03125C104.875 9.56771 104.742 10.0703 104.477 10.5391C104.211 11.0078 103.852 11.401 103.398 11.7188C102.68 12.2344 101.677 12.763 100.391 13.3047C99.9375 13.4922 99.5599 13.6589 99.2578 13.8047C98.9609 13.9505 98.6615 14.1224 98.3594 14.3203C98.0573 14.5182 97.8307 14.7292 97.6797 14.9531C97.5339 15.1719 97.4609 15.4062 97.4609 15.6562H104.922V17ZM117.867 15.5391C116.956 16.6172 115.706 17.1562 114.117 17.1562C112.529 17.1562 111.279 16.6172 110.367 15.5391C109.451 14.4661 108.992 13.0859 108.992 11.3984C108.992 9.72135 109.451 8.34115 110.367 7.25781C111.279 6.17969 112.529 5.64062 114.117 5.64062C115.706 5.64062 116.956 6.17969 117.867 7.25781C118.779 8.33073 119.234 9.71094 119.234 11.3984C119.234 13.0911 118.779 14.4714 117.867 15.5391ZM117.664 11.3984C117.664 10.112 117.357 9.0599 116.742 8.24219C116.128 7.42448 115.253 7.01562 114.117 7.01562C112.982 7.01562 112.107 7.42448 111.492 8.24219C110.872 9.0651 110.562 10.1172 110.562 11.3984C110.562 12.6745 110.872 13.724 111.492 14.5469C112.112 15.3698 112.987 15.7812 114.117 15.7812C115.247 15.7812 116.122 15.3698 116.742 14.5469C117.357 13.7292 117.664 12.6797 117.664 11.3984ZM132.281 17H123.242V15.8125C123.242 15.3073 123.375 14.8411 123.641 14.4141C123.911 13.9818 124.273 13.6172 124.727 13.3203C125.367 12.9036 126.388 12.3932 127.789 11.7891C128.221 11.6068 128.596 11.4297 128.914 11.2578C129.232 11.0859 129.536 10.888 129.828 10.6641C130.12 10.4349 130.341 10.1849 130.492 9.91406C130.648 9.63802 130.727 9.34375 130.727 9.03125C130.727 8.36458 130.484 7.86198 130 7.52344C129.516 7.1849 128.815 7.01562 127.898 7.01562C126.013 7.01562 125.068 7.76823 125.062 9.27344V9.59375H123.562V9.27344C123.562 8.13281 123.953 7.24219 124.734 6.60156C125.505 5.96094 126.56 5.64062 127.898 5.64062C129.216 5.64062 130.271 5.94271 131.062 6.54688C131.844 7.15625 132.234 7.98438 132.234 9.03125C132.234 9.56771 132.102 10.0703 131.836 10.5391C131.57 11.0078 131.211 11.401 130.758 11.7188C130.039 12.2344 129.036 12.763 127.75 13.3047C127.297 13.4922 126.919 13.6589 126.617 13.8047C126.32 13.9505 126.021 14.1224 125.719 14.3203C125.417 14.5182 125.19 14.7292 125.039 14.9531C124.893 15.1719 124.82 15.4062 124.82 15.6562H132.281V17ZM145.156 17H136.117V15.8125C136.117 15.3073 136.25 14.8411 136.516 14.4141C136.786 13.9818 137.148 13.6172 137.602 13.3203C138.242 12.9036 139.263 12.3932 140.664 11.7891C141.096 11.6068 141.471 11.4297 141.789 11.2578C142.107 11.0859 142.411 10.888 142.703 10.6641C142.995 10.4349 143.216 10.1849 143.367 9.91406C143.523 9.63802 143.602 9.34375 143.602 9.03125C143.602 8.36458 143.359 7.86198 142.875 7.52344C142.391 7.1849 141.69 7.01562 140.773 7.01562C138.888 7.01562 137.943 7.76823 137.938 9.27344V9.59375H136.438V9.27344C136.438 8.13281 136.828 7.24219 137.609 6.60156C138.38 5.96094 139.435 5.64062 140.773 5.64062C142.091 5.64062 143.146 5.94271 143.938 6.54688C144.719 7.15625 145.109 7.98438 145.109 9.03125C145.109 9.56771 144.977 10.0703 144.711 10.5391C144.445 11.0078 144.086 11.401 143.633 11.7188C142.914 12.2344 141.911 12.763 140.625 13.3047C140.172 13.4922 139.794 13.6589 139.492 13.8047C139.195 13.9505 138.896 14.1224 138.594 14.3203C138.292 14.5182 138.065 14.7292 137.914 14.9531C137.768 15.1719 137.695 15.4062 137.695 15.6562H145.156V17Z" fill="#A0A747"/>
</g>
<g filter="url(#filter1_b_1256_8122)">
<rect x="169" width="164" height="24" rx="5" fill="black" fill-opacity="0.6"/>
<path d="M190.922 17H181.883V15.8125C181.883 15.3073 182.016 14.8411 182.281 14.4141C182.552 13.9818 182.914 13.6172 183.367 13.3203C184.008 12.9036 185.029 12.3932 186.43 11.7891C186.862 11.6068 187.237 11.4297 187.555 11.2578C187.872 11.0859 188.177 10.888 188.469 10.6641C188.76 10.4349 188.982 10.1849 189.133 9.91406C189.289 9.63802 189.367 9.34375 189.367 9.03125C189.367 8.36458 189.125 7.86198 188.641 7.52344C188.156 7.1849 187.456 7.01562 186.539 7.01562C184.654 7.01562 183.708 7.76823 183.703 9.27344V9.59375H182.203V9.27344C182.203 8.13281 182.594 7.24219 183.375 6.60156C184.146 5.96094 185.201 5.64062 186.539 5.64062C187.857 5.64062 188.911 5.94271 189.703 6.54688C190.484 7.15625 190.875 7.98438 190.875 9.03125C190.875 9.56771 190.742 10.0703 190.477 10.5391C190.211 11.0078 189.852 11.401 189.398 11.7188C188.68 12.2344 187.677 12.763 186.391 13.3047C185.938 13.4922 185.56 13.6589 185.258 13.8047C184.961 13.9505 184.661 14.1224 184.359 14.3203C184.057 14.5182 183.831 14.7292 183.68 14.9531C183.534 15.1719 183.461 15.4062 183.461 15.6562H190.922V17ZM197.18 16.0391C196.368 15.2943 195.962 14.3073 195.962 13.0781C195.962 11.8542 196.368 10.8672 197.18 10.1172C197.988 9.3724 199.016 9 200.266 9C201.506 9 202.534 9.3724 203.352 10.1172C204.159 10.8672 204.563 11.8542 204.563 13.0781C204.563 14.3073 204.159 15.2943 203.352 16.0391C202.534 16.7839 201.506 17.1562 200.266 17.1562C199.016 17.1562 197.988 16.7839 197.18 16.0391ZM202.368 15.0938C202.894 14.5677 203.157 13.8958 203.157 13.0781C203.157 12.2604 202.894 11.5885 202.368 11.0625C201.842 10.5417 201.141 10.2812 200.266 10.2812C199.386 10.2812 198.686 10.5417 198.165 11.0625C197.633 11.5833 197.368 12.2552 197.368 13.0781C197.368 13.901 197.633 14.5729 198.165 15.0938C198.691 15.6198 199.391 15.8828 200.266 15.8828C201.131 15.8828 201.831 15.6198 202.368 15.0938ZM207.548 9.21094V11.4453C207.548 12.0599 207.714 12.5208 208.048 12.8281C208.386 13.1354 208.936 13.2891 209.696 13.2891H211.821V9.21094H213.196V17H211.821V14.5391H209.696C208.545 14.5391 207.67 14.2786 207.071 13.7578C206.472 13.2318 206.173 12.4609 206.173 11.4453V9.21094H207.548ZM223.564 13.0781L223.517 13.7344H216.431C216.431 14.1823 216.697 14.651 217.228 15.1406C217.754 15.6354 218.46 15.8828 219.345 15.8828C219.996 15.8828 220.53 15.7604 220.947 15.5156C221.29 15.3073 221.53 15.1198 221.665 14.9531L221.728 14.8438H223.345C223.314 14.9219 223.28 15.0026 223.243 15.0859C223.176 15.2057 223.048 15.3906 222.861 15.6406C222.658 15.9062 222.421 16.1432 222.15 16.3516C221.889 16.5547 221.506 16.7396 221.001 16.9062C220.522 17.0729 219.97 17.1562 219.345 17.1562C218.048 17.1562 216.996 16.7865 216.189 16.0469C215.371 15.3073 214.962 14.3177 214.962 13.0781C214.962 11.849 215.368 10.862 216.181 10.1172C216.988 9.3724 218.017 9 219.267 9C220.506 9 221.535 9.3724 222.353 10.1172C223.16 10.862 223.564 11.849 223.564 13.0781ZM221.345 11.0234C220.824 10.5286 220.131 10.2812 219.267 10.2812C218.392 10.2812 217.699 10.5286 217.189 11.0234C216.673 11.5182 216.415 12.0052 216.415 12.4844H222.111C222.111 12.0052 221.855 11.5182 221.345 11.0234ZM226.713 20.2031H225.338V9.15625H226.713V10.3281H226.775C226.869 10.1823 227.017 10.026 227.22 9.85938C227.403 9.71354 227.598 9.58073 227.806 9.46094C228.03 9.33594 228.322 9.22917 228.681 9.14062C229.046 9.04688 229.413 9 229.783 9C230.965 9 231.955 9.375 232.752 10.125C233.543 10.8854 233.939 11.8698 233.939 13.0781C233.939 14.2969 233.543 15.2812 232.752 16.0312C231.955 16.7812 230.965 17.1562 229.783 17.1562C228.97 17.1562 228.309 17 227.798 16.6875C227.351 16.4115 227.046 16.1745 226.884 15.9766L226.775 15.8281H226.713V20.2031ZM231.744 15.0859C232.27 14.5599 232.533 13.8906 232.533 13.0781C232.533 12.276 232.27 11.6068 231.744 11.0703C231.207 10.5443 230.499 10.2812 229.619 10.2812C228.733 10.2812 228.028 10.5443 227.502 11.0703C226.976 11.6068 226.713 12.276 226.713 13.0781C226.713 13.9115 226.983 14.5859 227.525 15.1016C228.061 15.6224 228.759 15.8828 229.619 15.8828C230.504 15.8828 231.213 15.6172 231.744 15.0859ZM243.986 13.0781L243.939 13.7344H236.853C236.853 14.1823 237.119 14.651 237.65 15.1406C238.176 15.6354 238.882 15.8828 239.768 15.8828C240.419 15.8828 240.952 15.7604 241.369 15.5156C241.713 15.3073 241.952 15.1198 242.088 14.9531L242.15 14.8438H243.768C243.736 14.9219 243.702 15.0026 243.666 15.0859C243.598 15.2057 243.471 15.3906 243.283 15.6406C243.08 15.9062 242.843 16.1432 242.572 16.3516C242.312 16.5547 241.929 16.7396 241.424 16.9062C240.945 17.0729 240.393 17.1562 239.768 17.1562C238.471 17.1562 237.419 16.7865 236.611 16.0469C235.794 15.3073 235.385 14.3177 235.385 13.0781C235.385 11.849 235.791 10.862 236.603 10.1172C237.411 9.3724 238.439 9 239.689 9C240.929 9 241.958 9.3724 242.775 10.1172C243.583 10.862 243.986 11.849 243.986 13.0781ZM241.768 11.0234C241.247 10.5286 240.554 10.2812 239.689 10.2812C238.814 10.2812 238.122 10.5286 237.611 11.0234C237.096 11.5182 236.838 12.0052 236.838 12.4844H242.533C242.533 12.0052 242.278 11.5182 241.768 11.0234ZM246.01 19H244.635V15.75H245.213C245.557 15.75 245.804 15.5781 245.955 15.2344C246.106 14.901 246.231 14.3151 246.33 13.4766L246.877 9.15625H252.815V15.75H253.994V19H252.619V17H246.01V19ZM251.44 10.4062H248.08L247.612 14.1172C247.565 14.513 247.489 14.8516 247.385 15.1328C247.281 15.4141 247.182 15.5833 247.088 15.6406L246.971 15.7188V15.75H251.44V10.4062ZM256.659 11.75H258.448C260.797 11.75 261.971 12.625 261.971 14.375C261.971 16.125 260.797 17 258.448 17H255.284V9.15625H256.659V11.75ZM258.448 15.7969C259.239 15.7969 259.789 15.6823 260.096 15.4531C260.404 15.224 260.557 14.8646 260.557 14.375C260.557 13.8854 260.404 13.526 260.096 13.2969C259.789 13.0677 259.239 12.9531 258.448 12.9531H256.659V15.7969H258.448Z" fill="white"/>
<path d="M278.922 17H269.883V15.8125C269.883 15.3073 270.016 14.8411 270.281 14.4141C270.552 13.9818 270.914 13.6172 271.367 13.3203C272.008 12.9036 273.029 12.3932 274.43 11.7891C274.862 11.6068 275.237 11.4297 275.555 11.2578C275.872 11.0859 276.177 10.888 276.469 10.6641C276.76 10.4349 276.982 10.1849 277.133 9.91406C277.289 9.63802 277.367 9.34375 277.367 9.03125C277.367 8.36458 277.125 7.86198 276.641 7.52344C276.156 7.1849 275.456 7.01562 274.539 7.01562C272.654 7.01562 271.708 7.76823 271.703 9.27344V9.59375H270.203V9.27344C270.203 8.13281 270.594 7.24219 271.375 6.60156C272.146 5.96094 273.201 5.64062 274.539 5.64062C275.857 5.64062 276.911 5.94271 277.703 6.54688C278.484 7.15625 278.875 7.98438 278.875 9.03125C278.875 9.56771 278.742 10.0703 278.477 10.5391C278.211 11.0078 277.852 11.401 277.398 11.7188C276.68 12.2344 275.677 12.763 274.391 13.3047C273.938 13.4922 273.56 13.6589 273.258 13.8047C272.961 13.9505 272.661 14.1224 272.359 14.3203C272.057 14.5182 271.831 14.7292 271.68 14.9531C271.534 15.1719 271.461 15.4062 271.461 15.6562H278.922V17ZM291.867 15.5391C290.956 16.6172 289.706 17.1562 288.117 17.1562C286.529 17.1562 285.279 16.6172 284.367 15.5391C283.451 14.4661 282.992 13.0859 282.992 11.3984C282.992 9.72135 283.451 8.34115 284.367 7.25781C285.279 6.17969 286.529 5.64062 288.117 5.64062C289.706 5.64062 290.956 6.17969 291.867 7.25781C292.779 8.33073 293.234 9.71094 293.234 11.3984C293.234 13.0911 292.779 14.4714 291.867 15.5391ZM291.664 11.3984C291.664 10.112 291.357 9.0599 290.742 8.24219C290.128 7.42448 289.253 7.01562 288.117 7.01562C286.982 7.01562 286.107 7.42448 285.492 8.24219C284.872 9.0651 284.562 10.1172 284.562 11.3984C284.562 12.6745 284.872 13.724 285.492 14.5469C286.112 15.3698 286.987 15.7812 288.117 15.7812C289.247 15.7812 290.122 15.3698 290.742 14.5469C291.357 13.7292 291.664 12.6797 291.664 11.3984ZM306.281 17H297.242V15.8125C297.242 15.3073 297.375 14.8411 297.641 14.4141C297.911 13.9818 298.273 13.6172 298.727 13.3203C299.367 12.9036 300.388 12.3932 301.789 11.7891C302.221 11.6068 302.596 11.4297 302.914 11.2578C303.232 11.0859 303.536 10.888 303.828 10.6641C304.12 10.4349 304.341 10.1849 304.492 9.91406C304.648 9.63802 304.727 9.34375 304.727 9.03125C304.727 8.36458 304.484 7.86198 304 7.52344C303.516 7.1849 302.815 7.01562 301.898 7.01562C300.013 7.01562 299.068 7.76823 299.062 9.27344V9.59375H297.562V9.27344C297.562 8.13281 297.953 7.24219 298.734 6.60156C299.505 5.96094 300.56 5.64062 301.898 5.64062C303.216 5.64062 304.271 5.94271 305.062 6.54688C305.844 7.15625 306.234 7.98438 306.234 9.03125C306.234 9.56771 306.102 10.0703 305.836 10.5391C305.57 11.0078 305.211 11.401 304.758 11.7188C304.039 12.2344 303.036 12.763 301.75 13.3047C301.297 13.4922 300.919 13.6589 300.617 13.8047C300.32 13.9505 300.021 14.1224 299.719 14.3203C299.417 14.5182 299.19 14.7292 299.039 14.9531C298.893 15.1719 298.82 15.4062 298.82 15.6562H306.281V17ZM319.188 13.5781C319.188 14.6771 318.771 15.5469 317.938 16.1875C317.104 16.8333 316.021 17.1562 314.688 17.1562C313.339 17.1562 312.255 16.8333 311.438 16.1875C310.609 15.5469 310.195 14.6615 310.195 13.5312V13.2422H311.695V13.5312C311.695 14.2708 311.958 14.8307 312.484 15.2109C313.01 15.5911 313.745 15.7812 314.688 15.7812C315.604 15.7812 316.333 15.5938 316.875 15.2188C317.411 14.8542 317.68 14.3073 317.68 13.5781C317.68 12.8385 317.419 12.2865 316.898 11.9219C316.378 11.5521 315.641 11.3672 314.688 11.3672H311.812V10.0234L316.258 7.21094V7.14062H310.578V5.79688H318.625V7.14062L314.18 9.96094V10.0234H314.688C316.042 10.0234 317.13 10.3333 317.953 10.9531C318.776 11.5729 319.188 12.4479 319.188 13.5781Z" fill="#A0A747"/>
</g>
<defs>
<filter id="filter0_b_1256_8122" x="-20" y="-20" width="199" height="64" filterUnits="userSpaceOnUse" color-interpolation-filters="sRGB">
<feFlood flood-opacity="0" result="BackgroundImageFix"/>
<feGaussianBlur in="BackgroundImageFix" stdDeviation="10"/>
<feComposite in2="SourceAlpha" operator="in" result="effect1_backgroundBlur_1256_8122"/>
<feBlend mode="normal" in="SourceGraphic" in2="effect1_backgroundBlur_1256_8122" result="shape"/>
</filter>
<filter id="filter1_b_1256_8122" x="149" y="-20" width="204" height="64" filterUnits="userSpaceOnUse" color-interpolation-filters="sRGB">
<feFlood flood-opacity="0" result="BackgroundImageFix"/>
<feGaussianBlur in="BackgroundImageFix" stdDeviation="10"/>
<feComposite in2="SourceAlpha" operator="in" result="effect1_backgroundBlur_1256_8122"/>
<feBlend mode="normal" in="SourceGraphic" in2="effect1_backgroundBlur_1256_8122" result="shape"/>
</filter>
</defs>
</svg>
