<svg width="329" height="34" viewBox="0 0 329 34" fill="none" xmlns="http://www.w3.org/2000/svg">
<g clip-path="url(#clip0_1256_8149)">
<path d="M0 1H27.3234V2.83541H1.82156V31.3241H27.1651V33H0V1Z" fill="#BBAE91"/>
<path d="M24.2352 11.6934H13.9395V13.6884H22.4929V20.7906H13.9395V22.7058H24.2352V11.6934Z" fill="#BBAE91"/>
<path d="M45.2533 30.9687V16.5288H47.913C50.3346 16.5288 54.5823 16.8488 55.7336 17.0488V15.4488C54.5823 15.6888 50.3346 16.0488 47.913 16.0488H45.2533V3.00881H49.6598C53.8678 3.00881 57.3215 3.08881 60.021 4.6888L59.9019 2.52881H41.8789V31.4487H60.4577L60.8943 29.0887C57.2421 30.8087 51.6447 30.9687 47.7939 30.9687H45.2533Z" fill="black"/>
<path d="M83.3801 24.2087C83.3801 19.4887 79.053 16.9287 74.9641 14.7287C71.0737 12.7287 67.6596 10.7687 67.6596 6.88866C67.6596 4.64866 68.9697 2.36867 73.4953 2.36867C77.1475 2.36867 79.5294 4.00866 80.9982 6.08866L81.2364 3.84866C79.2118 2.72867 76.6711 1.88867 73.4953 1.88867C67.3024 1.88867 64.8014 5.16866 64.8014 8.72866C64.8014 13.0887 68.6918 15.4087 72.9792 17.7287C76.949 19.7687 80.4822 22.4087 80.4822 25.9687C80.4822 28.8086 78.537 31.5286 73.7335 31.5286C69.327 31.5286 66.4687 29.4086 64.8808 27.4086L64.6426 29.6486C68.5727 31.8486 72.5822 32.0086 73.7732 32.0086C79.8867 32.0086 83.3801 28.3286 83.3801 24.2087Z" fill="black"/>
<path d="M100.179 31.4487V3.00881H102.879C108.04 3.00881 109.866 4.0088 111.057 4.6888L110.938 2.52881H86.0468L85.9277 4.6888C87.1187 4.0088 88.9845 3.00881 94.1453 3.00881H96.805V31.4487H100.179Z" fill="black"/>
<path d="M118.641 30.9687V16.5288H121.301C123.722 16.5288 127.97 16.8488 129.121 17.0488V15.4488C127.97 15.6888 123.722 16.0488 121.301 16.0488H118.641V3.00881H123.047C127.255 3.00881 130.709 3.08881 133.409 4.6888L133.29 2.52881H115.267V31.4487H133.845L134.282 29.0887C130.63 30.8087 125.032 30.9687 121.182 30.9687H118.641Z" fill="black"/>
<path d="M156.767 24.2087C156.767 19.4887 152.44 16.9287 148.351 14.7287C144.46 12.7287 141.046 10.7687 141.046 6.88866C141.046 4.64866 142.356 2.36867 146.882 2.36867C150.534 2.36867 152.916 4.00866 154.385 6.08866L154.623 3.84866C152.599 2.72867 150.058 1.88867 146.882 1.88867C140.689 1.88867 138.188 5.16866 138.188 8.72866C138.188 13.0887 142.079 15.4087 146.366 17.7287C150.336 19.7687 153.869 22.4087 153.869 25.9687C153.869 28.8086 151.924 31.5286 147.12 31.5286C142.714 31.5286 139.855 29.4086 138.267 27.4086L138.029 29.6486C141.959 31.8486 145.969 32.0086 147.16 32.0086C153.273 32.0086 156.767 28.3286 156.767 24.2087Z" fill="black"/>
</g>
<path d="M182.32 14.224C181.527 14.224 180.831 14.084 180.234 13.804C179.637 13.5147 179.137 13.1273 178.736 12.642C178.335 12.1567 178.031 11.6013 177.826 10.976C177.63 10.3507 177.532 9.69267 177.532 9.002C177.532 8.32067 177.63 7.66733 177.826 7.042C178.031 6.40733 178.335 5.84733 178.736 5.362C179.137 4.87667 179.637 4.48933 180.234 4.2C180.831 3.91067 181.527 3.766 182.32 3.766C183.113 3.766 183.809 3.91067 184.406 4.2C185.003 4.48933 185.503 4.87667 185.904 5.362C186.305 5.84733 186.604 6.40733 186.8 7.042C187.005 7.66733 187.108 8.32067 187.108 9.002C187.108 9.69267 187.005 10.3507 186.8 10.976C186.604 11.6013 186.305 12.1567 185.904 12.642C185.503 13.1273 185.003 13.5147 184.406 13.804C183.809 14.084 183.113 14.224 182.32 14.224ZM182.32 13.118C182.927 13.118 183.449 13.0013 183.888 12.768C184.327 12.5253 184.686 12.208 184.966 11.816C185.246 11.424 185.451 10.9853 185.582 10.5C185.713 10.0053 185.778 9.506 185.778 9.002C185.778 8.498 185.713 8.00333 185.582 7.518C185.451 7.02333 185.246 6.58 184.966 6.188C184.686 5.796 184.327 5.48333 183.888 5.25C183.449 5.00733 182.927 4.886 182.32 4.886C181.713 4.886 181.191 5.00733 180.752 5.25C180.313 5.48333 179.954 5.796 179.674 6.188C179.394 6.58 179.189 7.02333 179.058 7.518C178.927 8.00333 178.862 8.498 178.862 9.002C178.862 9.506 178.927 10.0053 179.058 10.5C179.189 10.9853 179.394 11.424 179.674 11.816C179.954 12.208 180.313 12.5253 180.752 12.768C181.191 13.0013 181.713 13.118 182.32 13.118ZM192.649 13.454C192.565 13.538 192.462 13.622 192.341 13.706C192.219 13.79 192.089 13.8647 191.949 13.93C191.818 13.9953 191.678 14.0467 191.529 14.084C191.389 14.1307 191.249 14.154 191.109 14.154C190.567 14.154 190.11 14.0467 189.737 13.832C189.373 13.6173 189.074 13.3327 188.841 12.978C188.617 12.614 188.453 12.1987 188.351 11.732C188.248 11.2653 188.197 10.78 188.197 10.276C188.197 9.11867 188.449 8.218 188.953 7.574C189.457 6.92067 190.143 6.594 191.011 6.594C191.16 6.594 191.314 6.61733 191.473 6.664C191.641 6.71067 191.795 6.77133 191.935 6.846C192.084 6.92067 192.219 7.00467 192.341 7.098C192.471 7.19133 192.574 7.28467 192.649 7.378V4.004H193.825V7.378C193.899 7.28467 193.997 7.19133 194.119 7.098C194.24 7.00467 194.375 6.92067 194.525 6.846C194.674 6.77133 194.828 6.71067 194.987 6.664C195.145 6.61733 195.304 6.594 195.463 6.594C196.331 6.594 197.017 6.92067 197.521 7.574C198.025 8.218 198.277 9.11867 198.277 10.276C198.277 10.78 198.225 11.2653 198.123 11.732C198.02 12.1987 197.852 12.614 197.619 12.978C197.395 13.3327 197.096 13.6173 196.723 13.832C196.359 14.0467 195.906 14.154 195.365 14.154C195.094 14.154 194.805 14.084 194.497 13.944C194.198 13.7947 193.974 13.6313 193.825 13.454V16.758H192.649V13.454ZM191.249 13.174C191.613 13.174 191.925 13.0853 192.187 12.908C192.448 12.7213 192.602 12.4973 192.649 12.236V8.596C192.593 8.4 192.509 8.24133 192.397 8.12C192.285 7.98933 192.159 7.88667 192.019 7.812C191.888 7.728 191.748 7.672 191.599 7.644C191.449 7.60667 191.309 7.588 191.179 7.588C190.871 7.588 190.605 7.658 190.381 7.798C190.166 7.92867 189.984 8.11533 189.835 8.358C189.695 8.59133 189.592 8.876 189.527 9.212C189.461 9.548 189.429 9.912 189.429 10.304C189.429 10.64 189.457 10.9807 189.513 11.326C189.569 11.662 189.662 11.97 189.793 12.25C189.933 12.5207 190.119 12.7447 190.353 12.922C190.586 13.09 190.885 13.174 191.249 13.174ZM195.225 13.174C195.589 13.174 195.887 13.09 196.121 12.922C196.354 12.7447 196.536 12.5207 196.667 12.25C196.807 11.97 196.905 11.662 196.961 11.326C197.017 10.9807 197.045 10.64 197.045 10.304C197.045 9.912 197.012 9.548 196.947 9.212C196.881 8.876 196.774 8.59133 196.625 8.358C196.485 8.11533 196.303 7.92867 196.079 7.798C195.864 7.658 195.603 7.588 195.295 7.588C195.164 7.588 195.024 7.60667 194.875 7.644C194.725 7.672 194.581 7.728 194.441 7.812C194.31 7.88667 194.189 7.98933 194.077 8.12C193.965 8.24133 193.881 8.4 193.825 8.596V12.236C193.871 12.4973 194.025 12.7213 194.287 12.908C194.548 13.0853 194.861 13.174 195.225 13.174ZM199.73 6.762H200.92V12.67L204.336 6.762H205.862V14H204.672V8.092L201.256 14H199.73V6.762ZM213.302 14H207.66V6.762H208.85V12.95H212.266V6.762H213.456V12.95H214.436V16.198H213.302V14ZM215.562 6.762H216.752V12.67L220.168 6.762H221.694V14H220.504V8.092L217.088 14H215.562V6.762ZM225.494 14.154C225.167 14.154 224.859 14.1167 224.57 14.042C224.28 13.9767 224.024 13.8647 223.8 13.706C223.585 13.538 223.412 13.328 223.282 13.076C223.16 12.8147 223.1 12.502 223.1 12.138C223.1 11.7273 223.17 11.3913 223.31 11.13C223.45 10.8687 223.632 10.6587 223.856 10.5C224.089 10.332 224.35 10.206 224.64 10.122C224.938 10.038 225.242 9.968 225.55 9.912C225.876 9.84667 226.184 9.8 226.474 9.772C226.772 9.73467 227.034 9.688 227.258 9.632C227.482 9.56667 227.659 9.478 227.79 9.366C227.92 9.24467 227.986 9.072 227.986 8.848C227.986 8.58667 227.934 8.37667 227.832 8.218C227.738 8.05933 227.612 7.938 227.454 7.854C227.304 7.77 227.132 7.714 226.936 7.686C226.749 7.658 226.562 7.644 226.376 7.644C225.872 7.644 225.452 7.742 225.116 7.938C224.78 8.12467 224.598 8.484 224.57 9.016H223.38C223.398 8.568 223.492 8.19 223.66 7.882C223.828 7.574 224.052 7.32667 224.332 7.14C224.612 6.944 224.929 6.804 225.284 6.72C225.648 6.636 226.035 6.594 226.446 6.594C226.772 6.594 227.094 6.61733 227.412 6.664C227.738 6.71067 228.032 6.80867 228.294 6.958C228.555 7.098 228.765 7.29867 228.924 7.56C229.082 7.82133 229.162 8.162 229.162 8.582V12.306C229.162 12.586 229.176 12.7913 229.204 12.922C229.241 13.0527 229.353 13.118 229.54 13.118C229.624 13.118 229.745 13.0947 229.904 13.048V13.972C229.698 14.0933 229.414 14.154 229.05 14.154C228.742 14.154 228.494 14.07 228.308 13.902C228.13 13.7247 228.042 13.44 228.042 13.048C227.715 13.44 227.332 13.7247 226.894 13.902C226.464 14.07 225.998 14.154 225.494 14.154ZM225.76 13.118C226.152 13.118 226.488 13.0667 226.768 12.964C227.048 12.852 227.276 12.7167 227.454 12.558C227.631 12.39 227.762 12.2127 227.846 12.026C227.93 11.83 227.972 11.648 227.972 11.48V10.262C227.822 10.3833 227.626 10.4673 227.384 10.514C227.141 10.5607 226.884 10.6027 226.614 10.64C226.352 10.6773 226.086 10.7147 225.816 10.752C225.545 10.7893 225.302 10.8547 225.088 10.948C224.873 11.0413 224.696 11.1767 224.556 11.354C224.425 11.522 224.36 11.7553 224.36 12.054C224.36 12.25 224.397 12.418 224.472 12.558C224.556 12.6887 224.658 12.796 224.78 12.88C224.91 12.964 225.06 13.0247 225.228 13.062C225.396 13.0993 225.573 13.118 225.76 13.118ZM230.955 14.084C230.834 14.084 230.708 14.07 230.577 14.042C230.447 14.0233 230.339 14.0047 230.255 13.986V12.936C230.349 12.964 230.433 12.9827 230.507 12.992C230.591 13.0013 230.671 13.006 230.745 13.006C231.053 13.006 231.287 12.8847 231.445 12.642C231.613 12.3993 231.735 12.026 231.809 11.522C231.893 11.018 231.945 10.374 231.963 9.59C231.982 8.79667 232.001 7.854 232.019 6.762H237.101V14H235.911V7.812H233.167C233.139 8.66133 233.107 9.46867 233.069 10.234C233.041 10.99 232.962 11.6527 232.831 12.222C232.701 12.7913 232.491 13.244 232.201 13.58C231.912 13.916 231.497 14.084 230.955 14.084ZM238.97 6.762H240.16V9.534H242.736C243.445 9.534 244.015 9.73 244.444 10.122C244.873 10.5047 245.088 11.046 245.088 11.746C245.088 12.4273 244.883 12.9733 244.472 13.384C244.061 13.7947 243.501 14 242.792 14H238.97V6.762ZM242.358 12.95C243.357 12.95 243.856 12.5487 243.856 11.746C243.856 10.9527 243.357 10.556 242.358 10.556H240.16V12.95H242.358ZM246.378 6.762H247.568V9.646H251.236V6.762H252.426V14H251.236V10.668H247.568V14H246.378V6.762ZM254.212 6.762H255.402V9.534H257.642C258.352 9.534 258.921 9.73 259.35 10.122C259.78 10.5047 259.994 11.046 259.994 11.746C259.994 12.4273 259.789 12.9733 259.378 13.384C258.968 13.7947 258.408 14 257.698 14H254.212V6.762ZM257.264 12.95C258.263 12.95 258.762 12.5487 258.762 11.746C258.762 10.9527 258.263 10.556 257.264 10.556H255.402V12.95H257.264ZM261.142 6.762H262.332V14H261.142V6.762ZM264.125 6.762H265.315V12.67L268.731 6.762H270.257V14H269.067V8.092L265.651 14H264.125V6.762ZM267.191 5.698C266.911 5.698 266.649 5.656 266.407 5.572C266.164 5.488 265.949 5.36667 265.763 5.208C265.585 5.04933 265.441 4.858 265.329 4.634C265.226 4.40067 265.175 4.13467 265.175 3.836H266.169C266.187 4.52667 266.523 4.872 267.177 4.872C267.503 4.872 267.751 4.78333 267.919 4.606C268.096 4.41933 268.185 4.16267 268.185 3.836H269.179C269.179 4.116 269.127 4.37267 269.025 4.606C268.922 4.83933 268.782 5.03533 268.605 5.194C268.427 5.35267 268.217 5.47867 267.975 5.572C267.732 5.656 267.471 5.698 267.191 5.698ZM275.951 6.762H281.859V14H280.669V7.812H277.141V14H275.951V6.762ZM285.65 14.154C285.323 14.154 285.015 14.1167 284.726 14.042C284.437 13.9767 284.18 13.8647 283.956 13.706C283.741 13.538 283.569 13.328 283.438 13.076C283.317 12.8147 283.256 12.502 283.256 12.138C283.256 11.7273 283.326 11.3913 283.466 11.13C283.606 10.8687 283.788 10.6587 284.012 10.5C284.245 10.332 284.507 10.206 284.796 10.122C285.095 10.038 285.398 9.968 285.706 9.912C286.033 9.84667 286.341 9.8 286.63 9.772C286.929 9.73467 287.19 9.688 287.414 9.632C287.638 9.56667 287.815 9.478 287.946 9.366C288.077 9.24467 288.142 9.072 288.142 8.848C288.142 8.58667 288.091 8.37667 287.988 8.218C287.895 8.05933 287.769 7.938 287.61 7.854C287.461 7.77 287.288 7.714 287.092 7.686C286.905 7.658 286.719 7.644 286.532 7.644C286.028 7.644 285.608 7.742 285.272 7.938C284.936 8.12467 284.754 8.484 284.726 9.016H283.536C283.555 8.568 283.648 8.19 283.816 7.882C283.984 7.574 284.208 7.32667 284.488 7.14C284.768 6.944 285.085 6.804 285.44 6.72C285.804 6.636 286.191 6.594 286.602 6.594C286.929 6.594 287.251 6.61733 287.568 6.664C287.895 6.71067 288.189 6.80867 288.45 6.958C288.711 7.098 288.921 7.29867 289.08 7.56C289.239 7.82133 289.318 8.162 289.318 8.582V12.306C289.318 12.586 289.332 12.7913 289.36 12.922C289.397 13.0527 289.509 13.118 289.696 13.118C289.78 13.118 289.901 13.0947 290.06 13.048V13.972C289.855 14.0933 289.57 14.154 289.206 14.154C288.898 14.154 288.651 14.07 288.464 13.902C288.287 13.7247 288.198 13.44 288.198 13.048C287.871 13.44 287.489 13.7247 287.05 13.902C286.621 14.07 286.154 14.154 285.65 14.154ZM285.916 13.118C286.308 13.118 286.644 13.0667 286.924 12.964C287.204 12.852 287.433 12.7167 287.61 12.558C287.787 12.39 287.918 12.2127 288.002 12.026C288.086 11.83 288.128 11.648 288.128 11.48V10.262C287.979 10.3833 287.783 10.4673 287.54 10.514C287.297 10.5607 287.041 10.6027 286.77 10.64C286.509 10.6773 286.243 10.7147 285.972 10.752C285.701 10.7893 285.459 10.8547 285.244 10.948C285.029 11.0413 284.852 11.1767 284.712 11.354C284.581 11.522 284.516 11.7553 284.516 12.054C284.516 12.25 284.553 12.418 284.628 12.558C284.712 12.6887 284.815 12.796 284.936 12.88C285.067 12.964 285.216 13.0247 285.384 13.062C285.552 13.0993 285.729 13.118 285.916 13.118ZM291.209 6.762H292.399V7.742H292.427C292.623 7.34067 292.931 7.05133 293.351 6.874C293.771 6.68733 294.233 6.594 294.737 6.594C295.297 6.594 295.783 6.69667 296.193 6.902C296.613 7.10733 296.959 7.38733 297.229 7.742C297.509 8.08733 297.719 8.48867 297.859 8.946C297.999 9.40333 298.069 9.88867 298.069 10.402C298.069 10.9247 297.999 11.4147 297.859 11.872C297.729 12.32 297.523 12.7167 297.243 13.062C296.973 13.398 296.627 13.664 296.207 13.86C295.797 14.056 295.316 14.154 294.765 14.154C294.579 14.154 294.378 14.1353 294.163 14.098C293.949 14.0607 293.734 14 293.519 13.916C293.305 13.832 293.099 13.72 292.903 13.58C292.717 13.4307 292.558 13.2487 292.427 13.034H292.399V16.758H291.209V6.762ZM294.639 13.118C295.041 13.118 295.381 13.0387 295.661 12.88C295.941 12.7213 296.165 12.5113 296.333 12.25C296.501 11.9887 296.623 11.69 296.697 11.354C296.772 11.018 296.809 10.6727 296.809 10.318C296.809 9.982 296.763 9.65533 296.669 9.338C296.585 9.01133 296.45 8.722 296.263 8.47C296.086 8.218 295.853 8.01733 295.563 7.868C295.283 7.71867 294.952 7.644 294.569 7.644C294.168 7.644 293.827 7.72333 293.547 7.882C293.267 8.04067 293.039 8.25067 292.861 8.512C292.684 8.764 292.553 9.05333 292.469 9.38C292.395 9.70667 292.357 10.038 292.357 10.374C292.357 10.7287 292.399 11.074 292.483 11.41C292.567 11.7367 292.698 12.026 292.875 12.278C293.062 12.53 293.3 12.7353 293.589 12.894C293.879 13.0433 294.229 13.118 294.639 13.118ZM301.216 7.812H298.626V6.762H304.996V7.812H302.406V14H301.216V7.812ZM305.947 6.762H307.137V9.646H310.805V6.762H311.995V14H310.805V10.668H307.137V14H305.947V6.762ZM316.861 14.154C316.282 14.154 315.773 14.0607 315.335 13.874C314.905 13.6873 314.546 13.426 314.257 13.09C313.967 12.754 313.748 12.3527 313.599 11.886C313.459 11.4193 313.389 10.9107 313.389 10.36C313.389 9.81867 313.473 9.31933 313.641 8.862C313.809 8.39533 314.042 7.994 314.341 7.658C314.649 7.322 315.008 7.06067 315.419 6.874C315.839 6.68733 316.296 6.594 316.791 6.594C317.435 6.594 317.967 6.72933 318.387 7C318.816 7.26133 319.157 7.59733 319.409 8.008C319.67 8.41867 319.847 8.86667 319.941 9.352C320.043 9.83733 320.085 10.2993 320.067 10.738H314.649C314.639 11.0553 314.677 11.3587 314.761 11.648C314.845 11.928 314.98 12.18 315.167 12.404C315.353 12.6187 315.591 12.7913 315.881 12.922C316.17 13.0527 316.511 13.118 316.903 13.118C317.407 13.118 317.817 13.0013 318.135 12.768C318.461 12.5347 318.676 12.18 318.779 11.704H319.955C319.796 12.5253 319.446 13.1413 318.905 13.552C318.363 13.9533 317.682 14.154 316.861 14.154ZM318.807 9.688C318.788 9.408 318.723 9.142 318.611 8.89C318.508 8.638 318.363 8.42333 318.177 8.246C317.999 8.05933 317.785 7.91467 317.533 7.812C317.29 7.7 317.019 7.644 316.721 7.644C316.413 7.644 316.133 7.7 315.881 7.812C315.638 7.91467 315.428 8.05933 315.251 8.246C315.073 8.43267 314.933 8.652 314.831 8.904C314.728 9.14667 314.667 9.408 314.649 9.688H318.807ZM321.342 6.762H322.532V7.742H322.56C322.756 7.34067 323.064 7.05133 323.484 6.874C323.904 6.68733 324.366 6.594 324.87 6.594C325.43 6.594 325.916 6.69667 326.326 6.902C326.746 7.10733 327.092 7.38733 327.362 7.742C327.642 8.08733 327.852 8.48867 327.992 8.946C328.132 9.40333 328.202 9.88867 328.202 10.402C328.202 10.9247 328.132 11.4147 327.992 11.872C327.862 12.32 327.656 12.7167 327.376 13.062C327.106 13.398 326.76 13.664 326.34 13.86C325.93 14.056 325.449 14.154 324.898 14.154C324.712 14.154 324.511 14.1353 324.296 14.098C324.082 14.0607 323.867 14 323.652 13.916C323.438 13.832 323.232 13.72 323.036 13.58C322.85 13.4307 322.691 13.2487 322.56 13.034H322.532V16.758H321.342V6.762ZM324.772 13.118C325.174 13.118 325.514 13.0387 325.794 12.88C326.074 12.7213 326.298 12.5113 326.466 12.25C326.634 11.9887 326.756 11.69 326.83 11.354C326.905 11.018 326.942 10.6727 326.942 10.318C326.942 9.982 326.896 9.65533 326.802 9.338C326.718 9.01133 326.583 8.722 326.396 8.47C326.219 8.218 325.986 8.01733 325.696 7.868C325.416 7.71867 325.085 7.644 324.702 7.644C324.301 7.644 323.96 7.72333 323.68 7.882C323.4 8.04067 323.172 8.25067 322.994 8.512C322.817 8.764 322.686 9.05333 322.602 9.38C322.528 9.70667 322.49 10.038 322.49 10.374C322.49 10.7287 322.532 11.074 322.616 11.41C322.7 11.7367 322.831 12.026 323.008 12.278C323.195 12.53 323.433 12.7353 323.722 12.894C324.012 13.0433 324.362 13.118 324.772 13.118ZM180.808 21.004H182.278L186.184 31H184.714L183.622 27.99H179.394L178.274 31H176.916L180.808 21.004ZM183.202 26.87L181.536 22.208H181.508L179.814 26.87H183.202ZM191.398 31.224C190.605 31.224 189.909 31.084 189.312 30.804C188.715 30.5147 188.215 30.1273 187.814 29.642C187.413 29.1567 187.109 28.6013 186.904 27.976C186.708 27.3507 186.61 26.6927 186.61 26.002C186.61 25.3207 186.708 24.6673 186.904 24.042C187.109 23.4073 187.413 22.8473 187.814 22.362C188.215 21.8767 188.715 21.4893 189.312 21.2C189.909 20.9107 190.605 20.766 191.398 20.766C192.191 20.766 192.887 20.9107 193.484 21.2C194.081 21.4893 194.581 21.8767 194.982 22.362C195.383 22.8473 195.682 23.4073 195.878 24.042C196.083 24.6673 196.186 25.3207 196.186 26.002C196.186 26.6927 196.083 27.3507 195.878 27.976C195.682 28.6013 195.383 29.1567 194.982 29.642C194.581 30.1273 194.081 30.5147 193.484 30.804C192.887 31.084 192.191 31.224 191.398 31.224ZM191.398 30.118C192.005 30.118 192.527 30.0013 192.966 29.768C193.405 29.5253 193.764 29.208 194.044 28.816C194.324 28.424 194.529 27.9853 194.66 27.5C194.791 27.0053 194.856 26.506 194.856 26.002C194.856 25.498 194.791 25.0033 194.66 24.518C194.529 24.0233 194.324 23.58 194.044 23.188C193.764 22.796 193.405 22.4833 192.966 22.25C192.527 22.0073 192.005 21.886 191.398 21.886C190.791 21.886 190.269 22.0073 189.83 22.25C189.391 22.4833 189.032 22.796 188.752 23.188C188.472 23.58 188.267 24.0233 188.136 24.518C188.005 25.0033 187.94 25.498 187.94 26.002C187.94 26.506 188.005 27.0053 188.136 27.5C188.267 27.9853 188.472 28.424 188.752 28.816C189.032 29.208 189.391 29.5253 189.83 29.768C190.269 30.0013 190.791 30.118 191.398 30.118ZM201.311 27.724V26.492L203.439 24.812V26.016L202.039 27.108L203.439 28.2V29.404L201.311 27.724ZM204.055 27.724V26.492L206.183 24.812V26.016L204.783 27.108L206.183 28.2V29.404L204.055 27.724ZM208.184 21.004H209.514V25.848L214.582 21.004H216.304L211.544 25.456L216.472 31H214.792L210.536 26.268L209.514 27.22V31H208.184V21.004ZM217.522 21.004H218.852V25.848L223.92 21.004H225.642L220.882 25.456L225.81 31H224.13L219.874 26.268L218.852 27.22V31H217.522V21.004ZM226.86 21.004H228.19V25.848L233.258 21.004H234.98L230.22 25.456L235.148 31H233.468L229.212 26.268L228.19 27.22V31H226.86V21.004ZM236.197 21.004H237.527V25.848L242.595 21.004H244.317L239.557 25.456L244.485 31H242.805L238.549 26.268L237.527 27.22V31H236.197V21.004ZM250.225 26.492V27.724L248.097 29.404V28.2L249.497 27.108L248.097 26.016V24.812L250.225 26.492ZM247.481 26.492V27.724L245.353 29.404V28.2L246.753 27.108L245.353 26.016V24.812L247.481 26.492Z" fill="#646562"/>
<defs>
<clipPath id="clip0_1256_8149">
<rect width="157" height="32" fill="white" transform="translate(0 1)"/>
</clipPath>
</defs>
</svg>
